<?xml version="1.0" encoding="utf-8"?>
<!-- Generator: Adobe Illustrator 15.0.0, SVG Export Plug-In . SVG Version: 6.00 Build 0)  -->
<!DOCTYPE svg PUBLIC "-//W3C//DTD SVG 1.1//EN" "http://www.w3.org/Graphics/SVG/1.1/DTD/svg11.dtd">
<svg version="1.1" id="Layer_1" xmlns="http://www.w3.org/2000/svg" xmlns:xlink="http://www.w3.org/1999/xlink" x="0px" y="0px"
	 width="500px" height="500px" viewBox="0 0 500 500" enable-background="new 0 0 500 500" xml:space="preserve">
<path fill-rule="evenodd" clip-rule="evenodd" fill="#B4CE51" d="M258,117c-3.604,1.956-5.631-4.575-10-7
	c-17.519-9.725-38.757,4.782-46,19C194.704,89.154,253.417,85.522,258,117z"/>
<path fill-rule="evenodd" clip-rule="evenodd" fill="#B4CE51" d="M204,106c-0.99,3.01-3.538,4.462-3,9
	c-9.231-3.312-15.709,2.305-17,10C176.113,111.747,192.414,96.66,204,106z"/>
<path fill-rule="evenodd" clip-rule="evenodd" d="M161,141c7.562-1.015,11.952,5.755,10,11C165.241,154.467,159.908,148.639,161,141
	z M170,151c0.193-5.526-3.262-7.404-7-9C161.022,145.773,165.214,150.785,170,151z"/>
<path fill-rule="evenodd" clip-rule="evenodd" fill="#B4CE51" d="M163,142c3.738,1.596,7.193,3.474,7,9
	C165.214,150.785,161.022,145.773,163,142z"/>
<path fill-rule="evenodd" clip-rule="evenodd" fill="#B4CE51" d="M262,185c0.667,0,1.333,0,2,0c-9.477,15.856-18.376,32.291-27,49
	c0.506,3.839-6.006,0.661-6,4c-1.321,2.95,1.934,5.173,2,8c0.088,3.781-1.039,14.719-3,19c-2.708,5.91-12.392,6.475-9,19
	c1.181,4.359,4.267,5.57,9,8c6.203,42.36,51.059,69.709,102,53c6.902-2.264,13.479-7.269,20-8c10.788-1.211,20.102,4.536,24,10
	c14.925,20.914-5.607,52.212-29,54c6.643-43.841-65.089-43.386-63-4c-33.181-16.635-67.575-40.277-72-86
	c-3.687-38.095,12.392-67.775,25-95c15.771-3.551,5.868-21.417,15-30C255.396,185.729,260.107,186.774,262,185z M221,291
	c-2.436,1.447-3.533,9.952,1,10C227.486,301.063,227.417,289.846,221,291z M227,333c1.333,0,2.667,0,4,0
	C236.314,324.535,221.906,324.815,227,333z M246,361c10.537-3.544,4.621-27.431-8-24C223.145,341.038,234.32,364.928,246,361z
	 M342,357c-0.096,6.715,9.335,17.113,18,11C373.741,350.911,342.306,335.62,342,357z M300,362c0.751,2.313,7.777,3.492,7-1
	C306.953,357.982,298.832,357.899,300,362z M247,370c2.827,3.655,11.014,2.07,9-5C252.282,362.522,245.981,364.567,247,370z
	 M281,370c3.548,2.569,8.973,0.103,9-4c-0.779-0.221-1.163-0.837-1-2C283.782,363.449,280.109,364.442,281,370z M350,380
	c1.667,0,3.333,0,5,0c1.448-2.503,2.422-3.927,1-7C350.462,369,345.496,376.349,350,380z"/>
<path fill-rule="evenodd" clip-rule="evenodd" d="M133,208c-1.658-1.081,5.028-2.239,8-2c2.441,2.541,6.207,0.779,8,2
	c0.529,0.804,1.043,1.624,1,3C145.827,208.507,140.309,207.358,133,208z"/>
<path fill-rule="evenodd" clip-rule="evenodd" fill="#B4CE51" d="M317,281c-19.935-6.533-25.083,26.819,0,22
	c-7.099,16.076-38.32,11.637-59,11c20.746-2.743,44.497-40.447,11-46C284.845,257.161,313.104,262.904,317,281z M287,299
	c2.981,2.76,7.359,3.587,11,1c0-1.667,0-3.333,0-5C294.971,291.264,286.005,292.752,287,299z M290,308
	C279.94,297.046,282.741,321.002,290,308L290,308z"/>
<path fill-rule="evenodd" clip-rule="evenodd" fill="#B4CE51" d="M232,267c0,5.333,0,10.667,0,16
	C230.338,279.965,230.338,270.035,232,267z"/>
<path fill-rule="evenodd" clip-rule="evenodd" fill="#B4CE51" d="M227,270c3.412-3.345,1.541,7.077,2,10
	C226.078,278.922,229.922,271.078,227,270z"/>
<path fill-rule="evenodd" clip-rule="evenodd" fill="#B4CE51" d="M319,287c1.655,1.078,1.655,8.922,0,10
	C319,293.667,319,290.333,319,287z"/>
<path fill-rule="evenodd" clip-rule="evenodd" d="M222,301c-4.533-0.048-3.436-8.553-1-10C227.417,289.846,227.486,301.063,222,301z
	 M224,299c0-2,0-4,0-6c-1,0-2,0-3,0C219.145,294.973,219.513,300.363,224,299z"/>
<path fill-rule="evenodd" clip-rule="evenodd" d="M298,295c0,1.667,0,3.333,0,5c-3.641,2.587-8.019,1.76-11-1
	C286.005,292.752,294.971,291.264,298,295z M289,296c0,4.971,8,4.971,8,0C295.546,294.53,290.454,294.53,289,296z"/>
<path fill-rule="evenodd" clip-rule="evenodd" fill="#B4CE51" d="M176,303c1.752-2.958,5.328,0.577,8,0
	c-0.204,14.537,2.744,25.923,6,37c-9.499-1.501-16.969-5.031-29-4c-3.388-3.612-6.348-7.651-6-15
	C169.044,329.618,190.42,313.778,176,303z M172,330c0.776,0.224,1.973,0.027,2,1c4.441,0.441,5.443-2.557,5-7
	C175.047,321.025,170.062,323.932,172,330z"/>
<path fill-rule="evenodd" clip-rule="evenodd" d="M290,308C282.741,321.002,279.94,297.046,290,308L290,308z M284,310
	c1.333,0,2.667,0,4,0c0.282-2.615-0.365-4.302-3-4C284.686,307.353,283.576,307.91,284,310z"/>
<path fill-rule="evenodd" clip-rule="evenodd" fill="#B4CE51" d="M328,306c15.747,0.81,28.073,9.621,24,27
	c-18.482,13.46-58.384,20.828-83,8c2.54-14.418-8.169-20.209-20-17c-4.704-0.963-4.624-6.71-8-9c13.869-0.729,32.681,4.843,49,2
	c4.593,3.744,7.83,10.989,17,12C320.096,330.443,333.15,321.824,328,306z M287,331c2.979,2.902,10.276,2.728,10-3
	C295.98,323.175,284.725,323.794,287,331z M300,333c-0.319,2.319,0.161,3.839,1,5c2.465,0.132,4.818,0.151,6-1c0-1.333,0-2.667,0-4
	C305.666,331.573,301.334,331.573,300,333z"/>
<path fill-rule="evenodd" clip-rule="evenodd" d="M179,324c0.443,4.443-0.559,7.441-5,7c-0.027-0.973-1.224-0.776-2-1
	C170.062,323.932,175.047,321.025,179,324z M177,324c-3.353-0.687-3.656,1.678-4,4C176.181,330.688,179.456,327.412,177,324z"/>
<path fill-rule="evenodd" clip-rule="evenodd" d="M297,328c0.276,5.728-7.021,5.902-10,3C284.725,323.794,295.98,323.175,297,328z
	 M288,329c1.42,2.278,8.257,3.643,7-2C292.171,327.171,288.14,326.14,288,329z"/>
<path fill-rule="evenodd" clip-rule="evenodd" d="M307,333c0,1.333,0,2.667,0,4c-1.182,1.151-3.535,1.132-6,1
	c-0.839-1.161-1.319-2.681-1-5C301.334,331.573,305.666,331.573,307,333z M305,333c-1,0-2,0-3,0c-0.279,2.279,0.241,3.759,2,4
	C304.314,335.647,305.424,335.09,305,333z"/>
<path fill-rule="evenodd" clip-rule="evenodd" d="M238,337c12.621-3.431,18.537,20.456,8,24C234.32,364.928,223.145,341.038,238,337
	z M233,343c-2.833,8.018,3.794,15.647,11,17C260.943,352.423,238.542,327.322,233,343z"/>
<path fill-rule="evenodd" clip-rule="evenodd" fill="#B4CE51" d="M192,345c0.061,5.422-7.116,3.143-9,9
	c-4.129,12.838,11.518,23.172,21,13c12.74,13.26,22.563,29.438,44,34c-17.335,2.331-38.999,0.335-58,1
	c10.837-33.929-41.291-42.05-49-16c-4.834-5.929-7.473-13.119-7-22C135.375,338.148,169.733,331.585,192,345z M163,357
	c1.182,1.151,3.535,1.132,6,1c0.132-2.465,0.151-4.818-1-6C164.535,351.868,162.195,352.861,163,357z M154,366
	c2.525,2.445,9.833,3.138,10-2C164.324,357.864,151.539,358.548,154,366z"/>
<path fill-rule="evenodd" clip-rule="evenodd" d="M360,368c-8.665,6.113-18.096-4.285-18-11C342.306,335.62,373.741,350.911,360,368
	z M356,368c9.242-2.605,4.297-25.649-8-19C338.701,354.028,346.458,370.69,356,368z"/>
<path fill-rule="evenodd" clip-rule="evenodd" d="M164,364c-0.167,5.138-7.475,4.445-10,2C151.539,358.548,164.324,357.864,164,364z
	 M156,362c-1.807,5.467,7.807,5.467,6,0C160,362,158,362,156,362z"/>
<path fill-rule="evenodd" clip-rule="evenodd" d="M256,365c2.014,7.07-6.173,8.655-9,5C245.981,364.567,252.282,362.522,256,365z
	 M249,370c2.319,0.319,3.839-0.161,5-1c0.279-2.279-0.241-3.759-2-4C251.105,366.772,247.941,366.274,249,370z"/>
<path fill-rule="evenodd" clip-rule="evenodd" d="M289,364c-0.163,1.163,0.221,1.779,1,2c-0.027,4.103-5.452,6.569-9,4
	C280.109,364.442,283.782,363.449,289,364z M287,365c-2.813,0.188-4.261,1.739-4,5C286.704,370.58,289.187,367.305,287,365z"/>
<path fill-rule="evenodd" clip-rule="evenodd" fill="#B4CE51" d="M309,370c2.378-1.66,11.622-1.66,14,0
	C318.333,370,313.667,370,309,370z"/>
<path fill-rule="evenodd" clip-rule="evenodd" d="M356,373c1.422,3.073,0.448,4.497-1,7c-1.667,0-3.333,0-5,0
	C345.496,376.349,350.462,369,356,373z M350,374c-1.018,5.643,6.278,6.494,5,0C353.333,374,351.667,374,350,374z"/>
<path fill-rule="evenodd" clip-rule="evenodd" fill="#B4CE51" d="M301,403c4.019-2.315,12.319-0.347,18-1
	C314.981,404.315,306.681,402.347,301,403z"/>
<path fill-rule="evenodd" clip-rule="evenodd" fill="#E4E78F" d="M168,405c22.333,0,44.667,0,67,0c0,0.333,0,0.667,0,1
	C212.999,405.334,188.335,407.332,168,405z"/>
<path fill-rule="evenodd" clip-rule="evenodd" fill="#B4CE51" d="M235,406c0-0.333,0-0.667,0-1c12.67,0.663,27.996-1.329,39,1
	C261,406,248,406,235,406z"/>
<path fill-rule="evenodd" clip-rule="evenodd" fill="#B4CE51" d="M166,186c0.19-0.81,1.003-0.997,1-2c1.875,0.239-0.567,1.646,1,2
	c-3.247,5.086-14.406,2.26-22,3c5.795-1.872,14.561-0.773,21-2C167.184,186.149,166.61,186.057,166,186z"/>
<path fill-rule="evenodd" clip-rule="evenodd" fill="#E4E78F" d="M142,155c-1.307-2.236-11.979-15.328,1-16
	c0.374,7.292,4.371,10.963,7,16c-1.257,0.41-2.044,1.29-2,3c-1.332,0.149-3.018-4.066-4-1C143.11,156.557,142.211,156.122,142,155z"
	/>
<path fill-rule="evenodd" clip-rule="evenodd" fill="#B4CE51" d="M155,155c2.735,0.931,4.265,3.069,7,4c-1.657,2.55-6.576-0.012-7-2
	C156.454,156.557,154.898,156.122,155,155z"/>
<path fill-rule="evenodd" clip-rule="evenodd" fill="#B4CE51" d="M231,362c4.269,4.076,12.061,9.924,13,14
	C240.258,370.742,234.742,367.258,231,362z"/>
<path fill-rule="evenodd" clip-rule="evenodd" fill="#B4CE51" d="M227,201c-2.248-3.293,9.027-1.605,13-2
	C237.949,201.949,229.051,198.051,227,201z"/>
<path fill-rule="evenodd" clip-rule="evenodd" fill="#B4CE51" d="M229,185c3.049-1.951,6.868-3.132,10-5
	C236.768,182.768,233.425,184.425,229,185z"/>
<path fill-rule="evenodd" clip-rule="evenodd" fill="#B4CE51" d="M217,177c1.624-5.043,7.739-5.594,15-5
	C227.102,173.769,218.886,172.219,217,177z"/>
<path fill-rule="evenodd" clip-rule="evenodd" d="M167,184c-7.521-4.124-16.8-7.812-20-16c-1.542-3.945,2.573-9.02-3-11
	c0.982-3.066,2.668,1.149,4,1c-0.044-1.71,0.743-2.59,2-3c-2.629-5.037-6.626-8.708-7-16c-12.979,0.672-2.307,13.764-1,16
	c-9.815-2.547-9.975-21.204,2-18c1.309-15.395,27.836-13.13,31-1c3.25-0.75,6.189-1.811,9-3c-12.076-15.623,2.981-41.913,22-29
	c16.038-20.877,58.566-9.824,55,21c12.318,5.279,24.219,18.772,20,40c-1.5,7.55-8.375,11.576-13,17c-7.87,9.23-15.208,25.79-22,39
	c-7.664,14.905-13.507,32.014-14,46c-1.662,3.035-1.662,12.965,0,16c-0.263,11.93,4.025,19.309,7,28
	c28.316,12.669,71.133-40.27,22-41c23.366-23.479,75.325-2.283,58,35c18.971-6.474,42.294,8.225,35,28
	c54.173,12.761,25.731,80.049-27,72c-9.339,0.661-21.326-1.326-29,1c-8,0-16,0-24,0c-11.004-2.329-26.33-0.337-39-1
	c-22.333,0-44.667,0-67,0c-35.43,1.507-53.611-63.818-11-68c-12.219-18.947,4.302-45.938,27-36c1.392-43.318,45.134-71.874,21-116
	c-9.728,2.454-24.004,5.055-33,0c-4.009,6.658-16.494,4.839-27,5c-2.465,3.978-0.452,10.747,1,14c-0.86,1.908-0.594-1.08-2-1
	c-0.839-2.828-1.161-6.172-2-9c1.85-0.15,0.614-3.386,2-4c0.851,0.184,0.943-0.39,1-1c0.333,0,0.667,0,1,0
	c7.594-0.74,18.753,2.086,22-3C166.433,185.646,168.875,184.239,167,184z M255,143c-5.417-3.24-12.479,3.574-16,2
	c7.194-6.325,23.235-6.631,26,4c-2.631-1.369-3.79-4.209-7-5c2.629,16.905-10.692,25.773-26,28c-7.261-0.594-13.376-0.043-15,5
	c-2.582,2.752-7.537,3.13-9,7c5.121,1.743,15.048,3.349,21,1c4.425-0.575,7.768-2.232,10-5c1.003,0.003,1.19-0.81,2-1
	c-5.258,8.158-19.003,10.602-32,8c21.044,41.822-18.191,68.121-22,109c-3.615,38.805,12.522,65.023,33,86
	c16.539,16.941,40.816,23.74,70,20c-15.797-2.292-27.111-18.23-40-22c-6.464-1.891-13.925,1.431-20-4c4.667,0,9.333,0,14,0
	c-0.939-4.076-8.731-9.924-13-14c-0.586-2.081-2.102-3.232-3-5c-6.972-0.695-14.77-0.563-19-4c2.94-2.727,12.125,0.792,15-2
	c-4.741-5.593-7.573-13.094-10-21c-6.532-0.135-11.193-2.141-15-5c4.262,0.405,10.302-0.969,13,1c-0.703-8.298-2.722-15.278-3-24
	c-3.229-2.438-10.7-0.633-12-5c4,0,8,0,12,0c1.467-6.533,1.52-14.479,3-21c-2.984-2.016-8.564-1.437-9-6
	c3.999-0.332,5.551,1.782,10,1c2.166-6.167,3.269-13.398,6-19c0.364-4.03-5.785-1.549-5-6c2.333,0,4.667,0,7,0
	c1.785-6.882,5.438-11.896,7-19c-2.97,0.236-7.66-2.917-6-4c3,0,6,0,9,0c2.492-6.841,5.554-13.112,9-19
	c-4.028-1.306-9.573-1.094-13-3c2.051-2.949,10.949,0.949,13-2c1,0,2,0,3,0c-0.2-5.58,9.571-11.339,3-14
	c30.868,6.317,42.047-31.635,27-49c-13.915-16.059-35.703-2.519-48,7c-14.024-3.477-31.02-11.805-48-6c-0.956,1.862,2.995,3.342,0,4
	c-4.181-17.043-36.596-17.943-31,5c0.87,3.564,4.912,6.531,9,9c-0.102,1.122,1.454,1.557,0,2c-2.039-0.558-1.961-3.009-4-1
	c-8.643,29.904,45.944,37.918,64,21c3.276-1.724,4.724-5.276,8-7c15.15,2.479,29.518-4.479,33-17
	C257.674,151.583,257.987,143.07,255,143z M202,129c7.243-14.218,28.481-28.725,46-19c4.369,2.425,6.396,8.956,10,7
	C253.417,85.522,194.704,89.154,202,129z M184,125c1.291-7.695,7.769-13.312,17-10c-0.538-4.538,2.01-5.99,3-9
	C192.414,96.66,176.113,111.747,184,125z M205,136c9.414,2.461,26.046,8.28,30-3c-24.386-7.96,13.08-35.388,9-4
	c5.285-0.715,10.643-1.357,15-3C250.689,100.528,204.863,106.904,205,136z M187,133c2.072-0.595,6.569,1.236,7-1
	c-5.257-4.76,1.046-11.241,6-12C194.015,109.555,182.61,123.435,187,133z M252,186c-9.132,8.583,0.771,26.449-15,30
	c-12.608,27.225-28.687,56.905-25,95c4.425,45.723,38.819,69.365,72,86c-2.089-39.386,69.643-39.841,63,4
	c23.393-1.788,43.925-33.086,29-54c-3.898-5.464-13.212-11.211-24-10c-6.521,0.731-13.098,5.736-20,8
	c-50.941,16.709-95.797-10.64-102-53c-4.733-2.43-7.819-3.641-9-8c-3.392-12.525,6.292-13.09,9-19c1.961-4.281,3.088-15.219,3-19
	c-0.066-2.827-3.321-5.05-2-8c-0.006-3.339,6.506-0.161,6-4c8.624-16.709,17.523-33.144,27-49c-0.667,0-1.333,0-2,0
	C260.107,186.774,255.396,185.729,252,186z M246,199c-3.846,2.821-5.154,8.179-7,13C245.031,211.364,246.722,206.389,246,199z
	 M232,242c3.638,0.638,3.929-2.071,4-5C233.187,237.187,231.74,238.74,232,242z M269,268c33.497,5.553,9.746,43.257-11,46
	c20.68,0.637,51.901,5.076,59-11c-25.083,4.819-19.935-28.533,0-22C313.104,262.904,284.845,257.161,269,268z M227,270
	c-7.841,3.742-5.344,18.694,3,20c0.701-4.367-1.701-5.633-1-10C228.541,277.077,230.412,266.655,227,270z M319,287c0-1,0-2,0-3
	c-22.134-11.385-21.789,27.341,0,16c0-1,0-2,0-3C320.655,295.922,320.655,288.078,319,287z M179,311
	c-0.484-15.096-24.417-6.837-24,8C164.35,325.46,179.3,320.339,179,311z M155,321c-0.348,7.349,2.612,11.388,6,15
	c12.031-1.031,19.501,2.499,29,4c-3.256-11.077-6.204-22.463-6-37c-2.672,0.577-6.248-2.958-8,0
	C190.42,313.778,169.044,329.618,155,321z M324,306c-9.301,4.032-15.457,11.209-30,10C297.404,338.094,339.815,323.922,324,306z
	 M307,329c-9.17-1.011-12.407-8.256-17-12c-16.319,2.843-35.131-2.729-49-2c3.376,2.29,3.296,8.037,8,9
	c11.831-3.209,22.54,2.582,20,17c24.616,12.828,64.518,5.46,83-8c4.073-17.379-8.253-26.19-24-27
	C333.15,321.824,320.096,330.443,307,329z M250,325c3.256,7.078,9.82,10.847,17,14C269.867,329.652,261.417,323.357,250,325z
	 M134,364c-0.473,8.881,2.166,16.071,7,22c7.709-26.05,59.837-17.929,49,16c19.001-0.665,40.665,1.331,58-1
	c-21.438-4.563-31.26-20.74-44-34c-9.482,10.172-25.129-0.162-21-13c1.884-5.857,9.061-3.578,9-9
	C169.733,331.585,135.375,338.148,134,364z M194,349c-19.314,1.533-5.284,30.42,9,17C201.186,359.147,196.248,355.418,194,349z
	 M309,370c-13.925,3.075-23.023,10.977-23,28c3.98,2.687,8.342,4.991,15,5c5.681-0.653,13.981,1.315,18-1
	c8.539-0.461,19.049,1.049,26-1c3.455-17.271-7.795-28.095-22-31C320.622,368.34,311.378,368.34,309,370z M143,388
	c4.272,11.73,24.553,16.111,46,14C197.973,370.85,149.136,360.418,143,388z"/>
<path fill-rule="evenodd" clip-rule="evenodd" fill="#B4CE51" d="M255,143c2.987,0.07,2.674,8.583,1,10
	C255.729,149.605,256.774,144.893,255,143z"/>
<path fill-rule="evenodd" clip-rule="evenodd" fill="#E4E78F" d="M155,155c-4.088-2.469-8.13-5.436-9-9
	c-5.596-22.943,26.819-22.043,31-5c2.995-0.658-0.956-2.138,0-4c16.98-5.805,33.976,2.523,48,6c12.297-9.519,34.085-23.059,48-7
	c15.047,17.365,3.868,55.317-27,49c6.571,2.661-3.2,8.42-3,14c-1,0-2,0-3,0c-3.973,0.395-15.248-1.293-13,2
	c3.427,1.906,8.972,1.694,13,3c-3.446,5.888-6.508,12.159-9,19c-3,0-6,0-9,0c-1.66,1.083,3.03,4.236,6,4
	c-1.562,7.104-5.215,12.118-7,19c-2.333,0-4.667,0-7,0c-0.785,4.451,5.364,1.97,5,6c-2.731,5.602-3.834,12.833-6,19
	c-4.449,0.782-6.001-1.332-10-1c0.436,4.563,6.016,3.984,9,6c-1.48,6.521-1.533,14.467-3,21c-4,0-8,0-12,0
	c1.3,4.367,8.771,2.563,12,5c0.278,8.722,2.297,15.702,3,24c-2.698-1.969-8.738-0.595-13-1c3.807,2.859,8.468,4.865,15,5
	c2.427,7.906,5.259,15.407,10,21c-2.875,2.792-12.06-0.727-15,2c4.23,3.437,12.028,3.305,19,4c0.898,1.768,2.414,2.919,3,5
	c3.742,5.258,9.258,8.742,13,14c-4.667,0-9.333,0-14,0c6.075,5.431,13.536,2.109,20,4c12.889,3.77,24.203,19.708,40,22
	c-29.184,3.74-53.461-3.059-70-20c-20.478-20.977-36.615-47.195-33-86c3.809-40.879,43.044-67.178,22-109
	c12.997,2.602,26.742,0.158,32-8c-0.81,0.19-0.997,1.003-2,1c-3.132,1.868-6.951,3.049-10,5c-5.952,2.349-15.879,0.743-21-1
	c1.463-3.87,6.418-4.248,9-7c1.886-4.781,10.102-3.231,15-5c15.308-2.227,28.629-11.095,26-28c3.21,0.791,4.369,3.631,7,5
	c-2.765-10.631-18.806-10.325-26-4c3.521,1.574,10.583-5.24,16-2c1.774,1.893,0.729,6.605,1,10c-3.482,12.521-17.85,19.479-33,17
	c1.73-1.603,2.929-3.737,4-6c-4.723,3.61-7.866,8.801-12,13c-18.056,16.918-72.643,8.904-64-21c2.039-2.009,1.961,0.442,4,1
	c0.424,1.988,5.343,4.55,7,2C159.265,158.069,157.735,155.931,155,155z M171,152c1.952-5.245-2.438-12.015-10-11
	C159.908,148.639,165.241,154.467,171,152z"/>
<path fill-rule="evenodd" clip-rule="evenodd" fill="#B4CE51" d="M215,177c4.134-4.199,7.277-9.39,12-13
	c-1.071,2.263-2.27,4.397-4,6C219.724,171.724,218.276,175.276,215,177z"/>
<path fill-rule="evenodd" clip-rule="evenodd" fill="#E4E78F" d="M155,186c1.453-0.547,5.168,1.168,5-1c2.356-0.022,2.944,1.723,6,1
	c0.61,0.057,1.184,0.149,1,1c-6.439,1.227-15.205,0.128-21,2c-0.333,0-0.667,0-1,0C142.837,186.446,152.742,187.452,155,186z"/>
<path fill-rule="evenodd" clip-rule="evenodd" d="M132,209c-2.928-0.261-3.072,2.261-6,2c10.896-8.848,10.884-35.584,34-26
	c0.168,2.168-3.547,0.453-5,1c-0.027-0.973-1.224-0.776-2-1c-3.25-1.644-6.189-0.389-9,1c-1.763,0.903-3.097,2.237-4,4
	c0,0.333,0,0.667,0,1c-1.23,0.437-2.054,1.28-2,3C136.997,199.544,131.208,204.916,132,209z"/>
<path fill-rule="evenodd" clip-rule="evenodd" fill="#E4E78F" d="M144,186c2.811-1.389,5.75-2.644,9-1
	C150.511,185.291,140.684,189.298,144,186z"/>
<path fill-rule="evenodd" clip-rule="evenodd" fill="#B4CE51" d="M140,190c0.903-1.763,2.237-3.097,4-4
	c-3.316,3.298,6.511-0.709,9-1c0.776,0.224,1.973,0.027,2,1c-2.258,1.452-12.163,0.446-10,3c-0.057,0.61-0.149,1.184-1,1
	c-1.386,0.614-0.15,3.85-2,4c0.228-1.772-1.008-5.008,2-4c0.003-1.003-0.81-1.19-1-2C141.573,188.239,141.313,189.646,140,190z"/>
<path fill-rule="evenodd" clip-rule="evenodd" fill="#E4E78F" d="M140,190c1.313-0.354,1.573-1.761,3-2c0.19,0.81,1.003,0.997,1,2
	c-3.008-1.008-1.772,2.228-2,4c0.839,2.828,1.161,6.172,2,9c-0.163,1.163,0.221,1.779,1,2c-0.31,1.357-2.504,0.83-4,1
	c-2.972-0.239-9.658,0.919-8,2c0.184,0.851-0.39,0.943-1,1c-0.792-4.084,4.997-9.456,6-15c0.973-0.027,0.776-1.224,1-2
	c1.184,2.558-2.125,9.178-4,12c0.745,2.255,5.609,0.391,8,1c-1.941-3.726-1.613-9.721-3-14C140,190.667,140,190.333,140,190z"/>
<path fill-rule="evenodd" clip-rule="evenodd" fill="#B4CE51" d="M138,194c-0.054-1.72,0.77-2.563,2-3
	c1.387,4.279,1.059,10.274,3,14c-2.391-0.609-7.255,1.255-8-1c1.875-2.822,5.184-9.442,4-12
	C138.776,192.776,138.973,193.973,138,194z"/>
<path fill-rule="evenodd" clip-rule="evenodd" fill="#B4CE51" d="M144,203c1.406-0.08,1.14,2.908,2,1c1.352,0.982,1.999,2.668,3,4
	c-1.793-1.221-5.559,0.541-8-2c1.496-0.17,3.69,0.357,4-1C144.221,204.779,143.837,204.163,144,203z"/>
<path fill-rule="evenodd" clip-rule="evenodd" fill="#E4E78F" d="M221,293c1,0,2,0,3,0c0,2,0,4,0,6
	C219.513,300.363,219.145,294.973,221,293z"/>
<path fill-rule="evenodd" clip-rule="evenodd" fill="#E4E78F" d="M297,296c0,4.971-8,4.971-8,0
	C290.454,294.53,295.546,294.53,297,296z"/>
<path fill-rule="evenodd" clip-rule="evenodd" fill="#E4E78F" d="M155,319c-0.417-14.837,23.516-23.096,24-8
	C179.3,320.339,164.35,325.46,155,319z"/>
<path fill-rule="evenodd" clip-rule="evenodd" fill="#E4E78F" d="M285,306c2.635-0.302,3.282,1.385,3,4c-1.333,0-2.667,0-4,0
	C283.576,307.91,284.686,307.353,285,306z"/>
<path fill-rule="evenodd" clip-rule="evenodd" fill="#E4E78F" d="M173,328c0.344-2.322,0.647-4.687,4-4
	C179.456,327.412,176.181,330.688,173,328z"/>
<path fill-rule="evenodd" clip-rule="evenodd" fill="#E4E78F" d="M295,327c1.257,5.643-5.58,4.278-7,2
	C288.14,326.14,292.171,327.171,295,327z"/>
<path fill-rule="evenodd" clip-rule="evenodd" fill="#E4E78F" d="M203,366c-14.284,13.42-28.314-15.467-9-17
	C196.248,355.418,201.186,359.147,203,366z"/>
<path fill-rule="evenodd" clip-rule="evenodd" d="M307,361c0.777,4.492-6.249,3.313-7,1C298.832,357.899,306.953,357.982,307,361z"
	/>
<path fill-rule="evenodd" clip-rule="evenodd" fill="#E4E78F" d="M252,365c1.759,0.241,2.279,1.721,2,4
	c-1.161,0.839-2.681,1.319-5,1C247.941,366.274,251.105,366.772,252,365z"/>
<path fill-rule="evenodd" clip-rule="evenodd" fill="#E4E78F" d="M283,370c-0.261-3.261,1.188-4.813,4-5
	C289.187,367.305,286.704,370.58,283,370z"/>
<path fill-rule="evenodd" clip-rule="evenodd" fill="#FFFFFF" d="M259,126c-4.357,1.643-9.715,2.285-15,3
	c4.08-31.388-33.386-3.96-9,4c-3.954,11.28-20.586,5.461-30,3C204.863,106.904,250.689,100.528,259,126z"/>
<path fill-rule="evenodd" clip-rule="evenodd" fill="#FFFFFF" d="M200,120c-4.954,0.759-11.257,7.24-6,12
	c-0.431,2.236-4.928,0.405-7,1C182.61,123.435,194.015,109.555,200,120z"/>
<path fill-rule="evenodd" clip-rule="evenodd" fill="#E4E78F" d="M236,237c-0.071,2.929-0.362,5.638-4,5
	C231.74,238.74,233.187,237.187,236,237z"/>
<path fill-rule="evenodd" clip-rule="evenodd" fill="#E4E78F" d="M229,280c-0.701,4.367,1.701,5.633,1,10
	c-8.344-1.306-10.841-16.258-3-20C229.922,271.078,226.078,278.922,229,280z"/>
<path fill-rule="evenodd" clip-rule="evenodd" d="M231,333c-1.333,0-2.667,0-4,0C221.906,324.815,236.314,324.535,231,333z"/>
<path fill-rule="evenodd" clip-rule="evenodd" fill="#E4E78F" d="M304,337c-1.759-0.241-2.279-1.721-2-4c1,0,2,0,3,0
	C305.424,335.09,304.314,335.647,304,337z"/>
<path fill-rule="evenodd" clip-rule="evenodd" d="M168,352c1.151,1.182,1.132,3.535,1,6c-2.465,0.132-4.818,0.151-6-1
	C162.195,352.861,164.535,351.868,168,352z"/>
<path fill-rule="evenodd" clip-rule="evenodd" fill="#B4CE51" d="M298,406c7.674-2.326,19.661-0.339,29-1
	C319.326,407.326,307.339,405.339,298,406z"/>
<path fill-rule="evenodd" clip-rule="evenodd" fill="#E4E78F" d="M239,212c1.846-4.821,3.154-10.179,7-13
	C246.722,206.389,245.031,211.364,239,212z"/>
<path fill-rule="evenodd" clip-rule="evenodd" fill="#E4E78F" d="M319,297c0,1,0,2,0,3c-21.789,11.341-22.134-27.385,0-16
	c0,1,0,2,0,3C319,290.333,319,293.667,319,297z"/>
<path fill-rule="evenodd" clip-rule="evenodd" fill="#E4E78F" d="M294,316c14.543,1.209,20.699-5.968,30-10
	C339.815,323.922,297.404,338.094,294,316z"/>
<path fill-rule="evenodd" clip-rule="evenodd" fill="#E4E78F" d="M267,339c-7.18-3.153-13.744-6.922-17-14
	C261.417,323.357,269.867,329.652,267,339z"/>
<path fill-rule="evenodd" clip-rule="evenodd" fill="#E4E78F" d="M244,360c-7.206-1.353-13.833-8.982-11-17
	C238.542,327.322,260.943,352.423,244,360z"/>
<path fill-rule="evenodd" clip-rule="evenodd" fill="#E4E78F" d="M348,349c12.297-6.649,17.242,16.395,8,19
	C346.458,370.69,338.701,354.028,348,349z"/>
<path fill-rule="evenodd" clip-rule="evenodd" fill="#E4E78F" d="M162,362c1.807,5.467-7.807,5.467-6,0C158,362,160,362,162,362z"/>
<path fill-rule="evenodd" clip-rule="evenodd" fill="#E4E78F" d="M301,403c-6.658-0.009-11.02-2.313-15-5
	c-0.023-17.023,9.075-24.925,23-28c4.667,0,9.333,0,14,0c14.205,2.905,25.455,13.729,22,31c-6.951,2.049-17.461,0.539-26,1
	C313.319,402.653,305.019,400.685,301,403z"/>
<path fill-rule="evenodd" clip-rule="evenodd" fill="#E4E78F" d="M189,402c-21.447,2.111-41.728-2.27-46-14
	C149.136,360.418,197.973,370.85,189,402z"/>
<path fill-rule="evenodd" clip-rule="evenodd" fill="#E4E78F" d="M355,374c1.278,6.494-6.018,5.643-5,0
	C351.667,374,353.333,374,355,374z"/>
</svg>
